<mxfile host="app.diagrams.net" modified="2022-04-20T12:15:20.092Z" agent="5.0 (Windows NT 10.0; Win64; x64) AppleWebKit/537.36 (KHTML, like Gecko) Chrome/92.0.4515.107 Safari/537.36" etag="LCmGr30MKWj1bFOwrY8a" version="16.0.0" type="github">
  <diagram id="aN3ff2GszAckAHxYvteG" name="Page-1">
    <mxGraphModel dx="1422" dy="706" grid="1" gridSize="10" guides="1" tooltips="1" connect="1" arrows="1" fold="1" page="1" pageScale="1" pageWidth="827" pageHeight="1169" math="0" shadow="0">
      <root>
        <mxCell id="0" />
        <mxCell id="1" parent="0" />
        <mxCell id="c54EOa0EUSvnF7AEv8mV-1" value="" style="rounded=1;whiteSpace=wrap;html=1;arcSize=3;strokeWidth=1;glass=0;shadow=0;sketch=1;fillColor=#f9f7ed;strokeColor=#36393d;" parent="1" vertex="1">
          <mxGeometry x="190" y="191" width="330" height="99" as="geometry" />
        </mxCell>
        <mxCell id="c54EOa0EUSvnF7AEv8mV-2" value="博主微信：wugo11" style="text;html=1;strokeColor=none;fillColor=none;align=center;verticalAlign=middle;whiteSpace=wrap;rounded=0;shadow=0;glass=0;sketch=1;" parent="1" vertex="1">
          <mxGeometry x="200" y="203" width="115" height="20" as="geometry" />
        </mxCell>
        <mxCell id="c54EOa0EUSvnF7AEv8mV-3" value="备注「&lt;font color=&quot;#ff0000&quot;&gt;&lt;b&gt;加群&lt;/b&gt;&lt;/font&gt;」，带你进入Go高手如云交流社群" style="text;html=1;strokeColor=none;fillColor=none;align=center;verticalAlign=middle;whiteSpace=wrap;rounded=0;shadow=0;glass=0;sketch=1;" parent="1" vertex="1">
          <mxGeometry x="262" y="233" width="250" height="20" as="geometry" />
        </mxCell>
        <mxCell id="c54EOa0EUSvnF7AEv8mV-4" value="备注「&lt;font color=&quot;#ff0000&quot;&gt;&lt;b&gt;gogogo&lt;/b&gt;&lt;/font&gt;」，送你一份精选Go学习宝典" style="text;html=1;strokeColor=none;fillColor=none;align=center;verticalAlign=middle;whiteSpace=wrap;rounded=0;shadow=0;glass=0;sketch=1;" parent="1" vertex="1">
          <mxGeometry x="260" y="258" width="250" height="20" as="geometry" />
        </mxCell>
        <mxCell id="c54EOa0EUSvnF7AEv8mV-6" value="公众号：5分钟学Go(id: learngo5)" style="text;html=1;strokeColor=none;fillColor=none;align=center;verticalAlign=middle;whiteSpace=wrap;rounded=0;shadow=0;glass=0;sketch=1;" parent="1" vertex="1">
          <mxGeometry x="322" y="203" width="184" height="20" as="geometry" />
        </mxCell>
        <mxCell id="LOMlz-EvkNEgYJiAtXiG-2" value="" style="shape=image;verticalLabelPosition=bottom;labelBackgroundColor=#ffffff;verticalAlign=top;aspect=fixed;imageAspect=0;image=data:image/jpeg,/9j/4AAQSkZJRgABAQAAAQABAAD/2wBDAAMCAgMCAgMDAwMEAwMEBQgFBQQEBQoHBwYIDAoMDAsKCwsNDhIQDQ4RDgsLEBYQERMUFRUVDA8XGBYUGBIUFRT/2wBDAQMEBAUEBQkFBQkUDQsNFBQUFBQUFBQUFBQUFBQUFBQUFBQUFBQUFBQUFBQUFBQUFBQUFBQUFBQUFBQUFBQUFBT/wAARCAECAQIDASIAAhEBAxEB/8QAHwAAAQUBAQEBAQEAAAAAAAAAAAECAwQFBgcICQoL/8QAtRAAAgEDAwIEAwUFBAQAAAF9AQIDAAQRBRIhMUEGE1FhByJxFDKBkaEII0KxwRVS0fAkM2JyggkKFhcYGRolJicoKSo0NTY3ODk6Q0RFRkdISUpTVFVWV1hZWmNkZWZnaGlqc3R1dnd4eXqDhIWGh4iJipKTlJWWl5iZmqKjpKWmp6ipqrKztLW2t7i5usLDxMXGx8jJytLT1NXW19jZ2uHi4+Tl5ufo6erx8vP09fb3+Pn6/8QAHwEAAwEBAQEBAQEBAQAAAAAAAAECAwQFBgcICQoL/8QAtREAAgECBAQDBAcFBAQAAQJ3AAECAxEEBSExBhJBUQdhcRMiMoEIFEKRobHBCSMzUvAVYnLRChYkNOEl8RcYGRomJygpKjU2Nzg5OkNERUZHSElKU1RVVldYWVpjZGVmZ2hpanN0dXZ3eHl6goOEhYaHiImKkpOUlZaXmJmaoqOkpaanqKmqsrO0tba3uLm6wsPExcbHyMnK0tPU1dbX2Nna4uPk5ebn6Onq8vP09fb3+Pn6/9oADAMBAAIRAxEAPwD9U6KKKACikzRmgBaKTNGaAFopM0ZoAWiikoAWik3D1ozQAtFJmjIoAWikzRmgBaKTNLQAUUmaNw9aAFopKM0ALRSZpaACikoyPWgBaKTNGaAFopM0ZoAWiiigAooooAKQ8ilpD0oA/ID9vT9vP46/BX9rHx14N8GeOf7G8N6b9h+y2X9kWE/l+ZYW8r/PLAznLyOeWOM4HAArwD/h6N+07/0Uz/ygaX/8jUv/AAVH/wCT7Pib/wBwz/012lfun8Uvin4Y+C3gTU/GXjLU/wCx/Dem+V9qvfs8s/l+ZKkSfJErOcvIg4U4zk8AmgD8K/8Ah6N+07/0Uz/ygaX/API1H/D0b9p3/opn/lA0v/5Gr9Vj/wAFRf2YwcH4lnP/AGANU/8Akak/4ei/sx/9FMP/AIINU/8AkagD8qv+Ho37Tv8A0Uz/AMoGl/8AyNX3/wD8EpP2o/id+0ofij/wsfxN/wAJF/Yv9l/YP9AtbXyfO+1+b/qIk3Z8qP72cbeMZOfVv+Co/wDyYn8Tf+4Z/wCnS0r5U/4IZf8ANbP+4J/7f0AfqrXz/wDt6/FHxP8ABf8AZO8c+MvBup/2N4k0z7D9kvfs8U/l+Zf28T/JKrIcpI45U4zkcgGvyB/4Kj/8n2fE3/uGf+mu0r7/AP2pP2o/hj+2h8CfE3wb+Dfib/hMfiR4l+y/2Vov9n3Vj9p+z3UV1N++uoooU2w28r/O4ztwMsQCAN/4JS/tRfE79pMfFEfEfxN/wkQ0X+y/sH+gWtr5Pnfa/M/1ESbs+VH97ONvGMnPgH7en7efx1+Cv7WPjrwb4M8c/wBjeG9N+w/ZbL+yLCfy/MsLeV/nlgZzl5HPLHGcDgAV9Af8Epv2Xfid+zV/wtE/Efwz/wAI4Na/sv7B/p9rded5P2vzf9RK+3Hmx/exndxnBx9A/FH9vT4FfBfx1qfg3xl44OjeJNN8r7VZf2Rfz+X5kSSp88UDIcpIh4Y4zg4IIoA/P79gv9vP46/Gr9rHwL4N8Z+Of7Z8N6l9u+1WX9kWEHmeXYXEqfPFArjDxoeGGcYPBIr6A/4Ks/tRfE79mv8A4Vd/wrjxN/wjv9tf2p9v/wBAtbrzvJ+yeX/r4n2482T7uM7uc4GPoH4Xft6fAr40eOtM8G+DfHB1nxJqXm/ZbL+yL+DzPLieV/nlgVBhI3PLDOMDJIFfFP8AwXNOR8EyOn/E7/8AbCgD5V/4ejftO/8ARTP/ACgaX/8AI1H/AA9G/ad/6KZ/5QNL/wDkavlav6ffil8U/DHwW8Can4y8Zan/AGP4b03yvtV79nln8vzJUiT5IlZzl5EHCnGcngE0AfFX/BKT9qP4nftKH4o/8LH8Tf8ACRf2L/Zf2D/QLW18nzvtfm/6iJN2fKj+9nG3jGTn9AK+Vj/wVE/Zkzj/AIWWc9Mf2Bqn/wAjV+P/AO3r8UfDHxo/ax8c+MvBup/2x4b1P7D9kvfs8sHmeXYW8T/JKquMPG45UZxkcEGgD6p/YL/bz+Ovxq/ax8C+DfGfjn+2fDepfbvtVl/ZFhB5nl2FxKnzxQK4w8aHhhnGDwSK9/8A+CrX7UXxO/ZsHwuHw48Tf8I6Na/tT7f/AKBa3XneT9k8v/XxPtx5sn3cZ3c5wMfAX/BLj/k+z4Zf9xP/ANNd3X7+nhaAPAP2Cvij4n+NH7J3gbxl4y1P+2fEmp/bvtd79nig8zy7+4iT5IlVBhI0HCjOMnkk1+QH/D0b9p3/AKKZ/wCUDS//AJGr3/8Ab0/YM+Ovxq/ax8deMvBngb+2fDepfYfst7/a9hB5nl2FvE/ySzq4w8bjlRnGRwQa/NegD9qP+CUn7UfxO/aUPxR/4WP4m/4SL+xf7L+wf6Ba2vk+d9r83/URJuz5Uf3s428Yyc/oBX5Vf8EMv+a2f9wT/wBv6+Vv+Co//J9nxN/7hn/prtKAP1+/b1+KPif4L/sneOfGXg3U/wCxvEmmfYfsl79nin8vzL+3if5JVZDlJHHKnGcjkA1+QH/D0X9pwcD4mcf9gDS//kav1V/4Kj/8mJ/E3/uGf+nS0r5U/wCCGRx/wuwnoP7E/wDb+gD5V/4ejftO/wDRTP8AygaX/wDI1H/D0b9p3/opn/lA0v8A+Rq/YD4o/t6fAr4L+OtT8G+MvHB0bxJpvlfarL+yL+fy/MiSVPnigZDlJEPDHGcHBBFcp/w9F/Zj/wCimH/wQap/8jUAflV/w9G/ad/6KZ/5QNL/APkaj/h6N+07/wBFM/8AKBpf/wAjV+1PwN/ak+GP7Sf9tj4ceJv+Ei/sXyPt/wDoF1a+T53meV/r4k3Z8qT7ucbecZGfxX/4Kj/8n2fE3/uGf+mu0oA/f6iiigAooooAKQ9KWkPSgD8Av+Co/wDyfZ8Tf+4Z/wCmu0r9VP8AgqP/AMmKfEz/ALhn/pztK/Kv/gqP/wAn2fE3/uGf+mu0r9VP+Co//JifxN/7hn/p0tKAPwBzRmiigD9/v+Co/wDyYn8Tf+4Z/wCnS0r5U/4IZf8ANbP+4J/7f19V/wDBUf8A5MT+Jv8A3DP/AE6WlfKn/BDL/mtn/cE/9v6APlb/AIKj/wDJ9nxN/wC4Z/6a7Sj/AIJc/wDJ9fwzz0/4mf8A6bLuj/gqP/yfZ8Tf+4Z/6a7Sv1/+F37BfwK+C/jrTPGXg3wOdG8Sab5v2W9/te/n8vzInif5JZ2Q5SRxypxnIwQDQByX7cv7cv8Awxf/AMITjwT/AMJj/wAJL9t/5i32H7P9n+z/APTGXfu8/wBsbe+ePlf/AIYY/wCHk/8Axkb/AMJt/wAK6/4TT/mWv7K/tT7H9k/0D/j58+HzN/2TzP8AVrt37edu4/f3xy/Zb+GH7SQ0T/hY3hn/AISL+xfP+wf6fdWvk+d5fmf6iVN2fKj+9nG3jGTn8rP2pP2o/id+xf8AHbxN8G/g34m/4Q74b+Gvsv8AZWi/YLW++zfaLWK6m/fXUUsz7priV/nc43YGFAAAPKv+CXJ/4zr+Gef+on/6bLuvqn/guZj/AIsn7f23/wC2Ffmv8Lfil4n+C3jvTPGXg3U/7G8Sab5v2W98iKfy/MieJ/klVkOUkccqcZyOQDXVfHL9qP4nftJDRB8RvE3/AAkQ0Xz/ALBiwtbXyfO8vzP9REm7PlR/ezjbxjJyAfVX7Lv/AASl/wCGlPgV4Z+I4+KP/COf219q/wCJb/wj/wBq8nybqWD/AFv2pN2fK3fdGN2OcZPqv/Dc/wDw8n/4xx/4Qn/hXX/Caf8AMy/2r/an2P7J/p//AB7eTD5m/wCyeX/rF2793O3afqr/AIJcf8mJ/DL/ALif/p0u66v4XfsF/Ar4L+OtM8ZeDfA50bxJpvm/Zb3+17+fy/MieJ/klnZDlJHHKnGcjBANAHxT/wAONO//AAuz/wAtT/7tr4B/aj+Bv/DNnx18TfDj+2/+Ei/sX7L/AMTL7J9l87zrWKf/AFW99uPN2/eOdueM4H6pf8FWv2ofib+zWPhcPhx4m/4R0a0NUF+PsFrded5P2Tyv9fE+3HmyfdxndznAx+QfxS+KXif40+O9T8ZeMtT/ALZ8Sal5X2q98iKDzPLiSJPkiVUGEjQcKM4yeSTQB+vv7Lv/AASl/wCGa/jr4Z+I/wDwtH/hI/7F+1f8S3/hH/svnedaywf637U+3Hm7vunO3HGcj1X9ub9ub/hjD/hCR/whP/CY/wDCS/bv+Yt9h+zfZ/s//TGXfu+0e2NvfPH5V/8AD0b9p3/opn/lA0v/AORq+qv2GP8AjZP/AMJt/wANHf8AFxf+EL+xf2D/AMwv7H9r+0faf+PHyPM3/Zbf/Wbtuz5cbmyAff8A+y58cx+0n8CvDPxG/sQeHf7a+1f8Sz7X9q8nybqWD/W7E3Z8rd90Y3Y5xk/zW4r7/wD2pP2o/id+xf8AHbxN8G/g34m/4Q74b+Gvsv8AZWi/YLW++zfaLWK6m/fXUUsz7priV/nc43YGFAA+gP29f2DPgV8Fv2TvHXjLwZ4HOjeJNN+w/Zb3+17+fy/Mv7eJ/klnZDlJHHKnGcjkA0Acn/wQy4/4XZ/3BP8A2/r5W/4Kjc/t1/Ez/uGf+my0r6p/4IZ/N/wu3Pf+xP8A2/r7W+KP7BfwK+NHjrU/GXjLwOdZ8Sal5X2q9/te/g8zy4kiT5Ip1QYSNBwozjJySTQByn/BUf8A5MT+Jv8A3DP/AE6WlfKn/BDL/mtn/cE/9v6+q/8AgqP/AMmJ/E3/ALhn/p0tK+VP+CGX/NbP+4J/7f0AfK3/AAVG4/br+Jn/AHDP/TZaV8q5r6q/4Kj/APJ9nxN/7hn/AKa7SvlWgD9U/wDghl/zWz/uCf8At/Xyt/wVH/5Ps+Jv/cM/9NdpX1T/AMEMv+a2f9wT/wBv6+Vv+Co//J9nxN/7hn/prtKAP3+ooooAKKKKACkPSlpD0oA/AL/gqP8A8n2fE3/uGf8AprtK/VT/AIei/sx/9FMP/gg1T/5Gryn9qL/glL/w0p8dfE3xH/4Wj/wjn9tfZf8AiW/8I/8AavJ8m1ig/wBb9qTdnyt33RjdjnGT5X/w4y/6rZ/5an/3bQB9Vf8AD0X9mP8A6KYf/BBqn/yNR/w9F/Zj/wCimH/wQap/8jV8qD/ghnn/AJrZ/wCWp/8AdtL/AMOMv+q2f+Wp/wDdtAHV/t6/t5/Ar40/sneOvBvgzxwdZ8Sal9h+y2X9kX8HmeXf28r/ADywKgwkbnlhnGByQK5T/ghmMf8AC7P+4J/7f0f8OMv+q2f+Wp/9219U/sM/sM/8MXf8Jt/xW3/CY/8ACS/Yv+YV9h+z/Z/tH/TeXfu8/wBsbe+eAD8rP+Co/wDyfZ8Tf+4Z/wCmu0r90/il8U/DHwW8Can4y8Zan/Y/hvTfK+1Xv2eWfy/MlSJPkiVnOXkQcKcZyeATXxV+1F/wSl/4aU+Ovib4j/8AC0f+Ec/tr7L/AMS3/hH/ALV5Pk2sUH+t+1Juz5W77oxuxzjJ8r/4bn/4eT/8Y4/8IT/wrr/hNP8AmZf7V/tT7H9k/wBP/wCPbyYfM3/ZPL/1i7d+7nbtIAft0D/h5MfBP/DOX/FxD4L+3f29/wAwv7H9r+z/AGb/AI/vJ8zf9kuP9Xu27PmxuXPqv7Lf7Ufwx/Yv+BPhn4N/GTxN/wAId8SPDX2r+1dF/s+6vvs32i6luof31rFLC+6G4if5HON2DhgQPVP2Gv2GP+GLx42z41/4TH/hJfsX/MJ+w/Z/s/2j/pvLv3faPbG3vnj8rP8AgqNx+3X8TP8AuGf+my0oA9V/Zb/Zc+J37F/x28M/GT4yeGf+EO+G/hr7V/autfb7W++zfaLWW1h/c2sssz7priJPkQ43ZOFBI/VP4G/tSfDD9pIa3/wrnxN/wkX9i+R9v/0C6tfJ87zPL/18Sbs+VJ93ONvOMjPlf/BUbj9hT4mf9wz/ANOdpXyp/wAEMz/yWzP/AFBP/b+gD7W+KP7enwK+C/jrU/BvjLxwdG8Sab5X2qy/si/n8vzIklT54oGQ5SRDwxxnBwQRX4q/FH9gv46/BbwLqfjLxn4HGjeG9N8r7Ve/2vYT+X5kqRJ8kU7OcvIg4U4zk4AJr9Kf2of+CUv/AA0p8dfE3xH/AOFo/wDCOf219m/4ln/CP/avJ8m1ig/1v2pN2fK3fdGN2OcZPq3/AAVG/wCTFPiZj/qGf+nO0oA+Vf8AghmMH42g9v7E/wDb+vlX/gqP/wAn2fE3/uGf+mu0o/YZ/bm/4Yu/4Tb/AIon/hMf+El+xf8AMW+w/Zvs/wBo/wCmMu/d5/tjb3zx5V+1H8c/+GlPjr4m+I/9if8ACO/219l/4lv2v7V5Pk2sUH+t2Juz5W77oxuxzjJAP6KPil8U/DHwW8Can4y8Zan/AGP4b03yvtV79nln8vzJUiT5IlZzl5EHCnGcngE1ynwO/ak+GP7SP9t/8K58Tf8ACQ/2L5P2/NhdWvk+b5nl/wCviTdnypPu5xt5xkZP2o/gb/w0n8CvE3w4/tv/AIR3+2vsv/Ey+yfavJ8m6in/ANVvTdnytv3hjdnnGD5V+wz+wz/wxePGxPjb/hMf+El+xf8AMJ+w/Zvs/wBo/wCm8u/d9o9sbe+eADrPij+3p8Cvgv461Pwb4y8cHRvEmm+V9qsv7Iv5/L8yJJU+eKBkOUkQ8McZwcEEV6p8Uvin4Y+C3gTU/GXjLU/7H8N6b5X2q9+zyz+X5kqRJ8kSs5y8iDhTjOTwCa/Cz/gqN/yfX8TMf9Qz/wBNlpX7UftSfAz/AIaT+BXib4c/23/wjv8AbX2X/iZ/ZPtXk+TdRT/6rem7PlbfvDG7POMEAPgb+1H8Mf2kjrY+HPib/hIjovk/b82F1a+T53meX/r4k3Z8qT7ucbecZGfxX/4Kj/8AJ9nxN/7hn/prtK+qs/8ADl//AKrF/wALJ/7gf9nf2f8A+BPm+Z9v/wBjb5X8W75fgD9qP45f8NKfHXxN8R/7E/4R3+2vsv8AxLftf2ryfJtYoP8AW7E3Z8rd90Y3Y5xkgH7U/wDBUf8A5MT+Jv8A3DP/AE6WlfAH/BKX9qL4Y/s1/wDC0f8AhY/ib/hHf7a/sv7B/oF1ded5P2vzf9RE+3Hmx/exndxnBx+qf7UfwN/4aT+BXib4cf23/wAI7/bX2X/iZfZPtXk+TdRT/wCq3puz5W37wxuzzjB+AB/wQz/6rZ/5an/3bQB9V/8AD0X9mP8A6KYf/BBqn/yNR/w9F/Zj/wCimH/wQap/8jV8q/8ADjL/AKrZ/wCWp/8AdtH/AA4y/wCq2f8Alqf/AHbQB9Vf8PRf2YzwPiWc/wDYA1T/AORq/ID9vX4o+GPjR+1j458ZeDdT/tjw3qf2H7Je/Z5YPM8uwt4n+SVVcYeNxyozjI4INfav/DjP/qtv/lqf/dtH/DjLP/NbP/LU/wDu2gD9VKKKKACiiigAoopCcAk9BQAtfP8A+3r8UfE/wX/ZO8c+MvBup/2N4k0z7D9kvfs8U/l+Zf28T/JKrIcpI45U4zkcgGl+KP7enwK+C/jrU/BvjLxwdG8Sab5X2qy/si/n8vzIklT54oGQ5SRDwxxnBwQRX4q/sFfFHwx8F/2sfA3jLxlqf9j+G9M+3fa737PLP5fmWFxEnyRKznLyIOFOM5PAJoA/Sn/glJ+1F8Tv2k/+FoD4jeJv+EiGi/2X9g/0C1tfJ877X5n+oiTdnyo/vZxt4xk5/QCvyq/bo/42S/8ACE/8M5f8XE/4Qr7d/b2f+JX9j+1/Z/s3/H95Pmb/ALJcf6vdt2fNjcufzX+KXwt8T/Bbx3qfg3xlpn9jeJNN8r7VZefFP5fmRJKnzxMyHKSIeGOM4PIIoA9+/wCHo37Tv/RTP/KBpf8A8jUf8PRv2nf+imf+UDS//kavVv2W/wBlz4nfsX/Hbwz8ZPjJ4Z/4Q74b+GvtX9q619vtb77N9otZbWH9zayyzPumuIk+RDjdk4UEj1T9uf8A42T/APCE/wDDOX/Fxf8AhC/t39vf8wv7H9r+z/Zv+P3yfM3/AGS4/wBXuxs+bG5cgHyr/wAPRv2nf+imf+UDS/8A5Gpf+CXH/J9nwy/7if8A6a7uvv8A/Zb/AGo/hj+xf8CfDPwb+Mnib/hDviR4a+1f2rov9n3V99m+0XUt1D++tYpYX3Q3ET/I5xuwcMCByv7ev7efwK+NP7J3jrwb4M8cHWfEmpfYfstl/ZF/B5nl39vK/wA8sCoMJG55YZxgckCgD9KO1fgF/wAFR/8Ak+z4m/8AcM/9NdpXyrjnFfr/APsFft5/Ar4LfsneBfBvjPxwdG8Sab9u+1WX9kX8/l+Zf3EqfPFAyHKSIeGOM4PIIoA9/wD+Co//ACYn8Tf+4Z/6dLSvxW+Bv7UfxO/ZtGtj4c+Jv+EdGteR9v8A9AtbrzvJ8zy/9fE+3HmyfdxndznAx6p/w65/ad/6Jn/5X9L/APkmvqr9hf8A41sf8Jt/w0d/xbr/AITT7D/YP/MU+2fZPtH2n/jx8/y9n2q3/wBZt3b/AJc7WwAfav7BXxR8T/Gj9k7wN4y8Zan/AGz4k1P7d9rvfs8UHmeXf3ESfJEqoMJGg4UZxk8kmvxW+KP7enx1+NPgXU/BvjPxwNZ8N6l5X2qy/siwg8zy5UlT54oFcYeNDwwzjByCRX6//wDD0X9mP/oph/8ABBqn/wAjV9VUAfyrk5JJ6miv6pz0r8Av+Co//J9nxN/7hn/prtKAPfv2C/28/jr8av2sfAvg3xn45/tnw3qX277VZf2RYQeZ5dhcSp88UCuMPGh4YZxg8Eiv1/wCuO1fK3/D0X9mP/oph/8ABBqn/wAjV6p8Df2pfhh+0l/bf/CufE3/AAkX9i+R9v8A9AurXyfO8zy/9fEm7PlSfdzjbzjIyAct8Uf2C/gV8aPHWp+MvGXgc6z4k1LyvtV7/a9/B5nlxJEnyRTqgwkaDhRnGTkkmk/b1+KPif4L/sneOfGXg3U/7G8SaZ9h+yXv2eKfy/Mv7eJ/klVkOUkccqcZyOQDS/FH9vT4FfBfx1qfg3xl44OjeJNN8r7VZf2Rfz+X5kSSp88UDIcpIh4Y4zg4IIpP29fhd4n+NH7J3jnwb4N0z+2fEmp/Yfsll9oig8zy7+3lf55WVBhI3PLDOMDkgUAfFX7C4/4eTf8ACbD9o3/i4n/CF/Yf7B/5hf2P7X9o+0/8ePkeZv8Aslv/AKzdt2fLjc2fqv8A4ddfsx/9EzP/AIP9U/8AkmvxW+OX7LfxP/Zu/sT/AIWN4Z/4R3+2vO+wf6fa3XneT5fmf6iV9uPNj+9jO7jODjqvhd+wX8dfjT4F0zxl4M8DjWfDepeb9lvf7XsIPM8uV4n+SWdXGHjccqM4yMgg0AfVP7Bf7efx1+NX7WPgXwb4z8c/2z4b1L7d9qsv7IsIPM8uwuJU+eKBXGHjQ8MM4weCRX0B/wAFWf2ovid+zX/wq7/hXHib/hHf7a/tT7f/AKBa3XneT9k8v/XxPtx5sn3cZ3c5wMerf8PRf2Y/+imH/wAEGqf/ACNXwB/wVa/ai+GP7Sn/AAq7/hXHib/hIv7F/tT7f/oF1a+T532Tyv8AXxJuz5Un3c4284yMgHlP/D0b9p3/AKKZ/wCUDS//AJGo/wCHo37Tv/RTP/KBpf8A8jV+qv8AwS4/5MT+GX/cT/8ATpd18Afst/sufE79i/47eGfjJ8ZPDP8Awh3w38Nfav7V1r7fa332b7Ray2sP7m1llmfdNcRJ8iHG7JwoJAB5T/w9F/acPB+JnH/YA0v/AORq/X/9gr4o+J/jR+yd4G8ZeMtT/tnxJqf277Xe/Z4oPM8u/uIk+SJVQYSNBwozjJ5JNcr/AMPRf2Yzx/wss5/7AGqf/I1fkB+3r8UfDHxo/ax8c+MvBup/2x4b1P7D9kvfs8sHmeXYW8T/ACSqrjDxuOVGcZHBBoA/opooooAKKKKACkPSlpD0oA/AL/gqNx+3X8TP+4Z/6bLSvqr/AIcZY/5rZ/5an/3bXyr/AMFR/wDk+z4m/wDcM/8ATXaV+v37evxR8T/Bf9k7xz4y8G6n/Y3iTTPsP2S9+zxT+X5l/bxP8kqshykjjlTjORyAaAOT/Ya/YZH7F48bf8Vt/wAJj/wkv2L/AJhX2H7P9n+0f9N5d+77R7Y2988flb/wVGH/ABnX8TMf9Qz/ANNlpSf8PRf2nBx/wszj/sAaX/8AI1foB+y3+y58Mf20PgT4Z+Mnxk8M/wDCY/EjxL9q/tXWv7QurH7T9nupbWH9zayxQptht4k+RBnbk5YkkA8p/wCG5/8Ah5P/AMY4/wDCE/8ACuv+E0/5mX+1f7U+x/ZP9P8A+PbyYfM3/ZPL/wBYu3fu527T9U/sNfsND9jD/hNs+Nv+Ex/4SX7F/wAwn7D9m+z/AGj/AKby7932j2xt754/C74W/FLxP8FvHemeMvBup/2N4k03zfst75EU/l+ZE8T/ACSqyHKSOOVOM5HIBr9fP+CUv7UXxO/aTHxRHxH8Tf8ACRDRf7L+wf6Ba2vk+d9r8z/URJuz5Uf3s428YycgC/tRf8Epv+Gk/jr4m+I//C0f+Ec/tr7N/wASz/hH/tXk+TaxQf637Um7PlbvujG7HOMn5X/ai/4JS/8ADNnwK8TfEc/FH/hI/wCxfsv/ABLP+Ef+y+d511FB/rftT7cebu+6c7ccZyOo/b0/bz+OvwV/ax8deDfBnjn+xvDem/Yfstl/ZFhP5fmWFvK/zywM5y8jnljjOBwAK/VX4pfCzwx8afAmp+DfGWmf2x4b1LyvtVl9olg8zy5UlT54mVxh40PDDOMHgkUAfhZ+wz+wz/w2gfG3/Fbf8IcfDX2L/mFfbvtH2j7R/wBN4tm37P753dsc/VX/AA4y/wCq2f8Alqf/AHbR+3Qf+HbB8En9nL/i3Z8afbv7e/5in2z7J9n+zf8AH95/l7Ptdx/q9u7f82dq4+VP+Ho37Tv/AEUz/wAoGl//ACNQB9//ALLv/BVr/hpP46+Gfhx/wq7/AIRz+2vtP/Ez/wCEg+1eT5NrLP8A6r7Km7PlbfvDG7POMH1X9uX9hj/htH/hCf8Aitv+EO/4Rr7d/wAwn7d9p+0fZ/8AptFs2/Z/fO7tjnrPhd+wX8Cvgv460zxl4N8DnRvEmm+b9lvf7Xv5/L8yJ4n+SWdkOUkccqcZyMEA179jC4HQUAfzW/tR/A3/AIZr+Ovib4cf23/wkX9i/Zf+Jl9k+y+d51rFP/qt77cebt+8c7c8ZwPv/wD4fm/9UT/8uv8A+4q+Vf8AgqP/AMn2fE3/ALhn/prtK/VT/h11+zH/ANEzP/g/1T/5JoA+Vf8Ah+b/ANUT/wDLr/8AuKvgD9qP45/8NKfHXxN8R/7E/wCEd/tr7L/xLftf2ryfJtYoP9bsTdnyt33RjdjnGT9Vf8FW/wBl34Y/s1/8Ku/4Vx4Z/wCEd/tr+1Pt/wDp91ded5P2Tyv9fK+3HmyfdxndznAx8AUAGa/VP/ghl0+Nmf8AqCf+39flZX6p/wDBDIZHxsB6f8ST/wBv6APlb/gqN/yfX8TMf9Qz/wBNlpX7UftSfHP/AIZs+BXib4jf2J/wkX9i/Zf+JZ9r+y+d511FB/rdj7cebu+6c7ccZyOW+KP7BfwK+NHjrU/GXjLwOdZ8Sal5X2q9/te/g8zy4kiT5Ip1QYSNBwozjJySTXqnxS+Fnhj40+BNT8G+MtM/tjw3qXlfarL7RLB5nlypKnzxMrjDxoeGGcYPBIoA/NbH/D6D/qjv/Ctv+45/aP8AaH/gN5Xl/YP9vd5v8O35vv79lz4Gf8M2fArwz8OP7a/4SL+xftX/ABM/sn2XzvOupZ/9Vvfbjzdv3jnbnjOAvwN/Zc+GP7Np1s/Dnwz/AMI6da8j7fm/urrzvJ8zy/8AXyvtx5sn3cZ3c5wMeq0AflX/AMOMv+q2f+Wp/wDdtIf+CGfH/JbP/LU/+7a+Vf8Ah6N+07/0Uz/ygaX/API1H/D0X9pw8H4mcf8AYA0v/wCRqAP2p/Zb+Bn/AAzZ8CfDPw4/tv8A4SL+xftX/Ey+yfZfO866ln/1W99uPN2/eOdueM4C/tR/Az/hpP4FeJvhz/bX/CO/219l/wCJn9k+1eT5N1FP/qt6bs+Vt+8Mbs84weU/YK+KPif40fsneBvGXjLU/wC2fEmp/bvtd79nig8zy7+4iT5IlVBhI0HCjOMnkk19AUAflWf+CGfPPxs/8tT/AO7a+AP2o/gb/wAM2fHXxN8OP7b/AOEi/sX7L/xMvsn2XzvOtYp/9Vvfbjzdv3jnbnjOB+qf/BVv9qL4nfs2f8KvHw58Tf8ACOjWv7U+3/6Ba3XneT9k8v8A18T7cebJ93Gd3OcDH5BfFL4peJ/jT471Pxl4y1P+2fEmpeV9qvfIig8zy4kiT5IlVBhI0HCjOMnkk0Af0+0UUUAFFFFABSHpS0h6UAfgF/wVH/5Ps+Jv/cM/9NdpX6qf8PRf2Y/+imH/AMEGqf8AyNX5V/8ABUbn9uv4mf8AcM/9NlpXyrmgD9U/26D/AMPJv+EJP7OX/FxB4L+3f29/zC/sf2v7P9m/4/vI8zf9kuP9Xu27PmxuXP5r/FL4W+J/gt471Pwb4y0z+xvEmm+V9qsvPin8vzIklT54mZDlJEPDHGcHkEV+lH/BDLn/AIXZ/wBwT/2/r1X9qL/glJ/w0n8dfE3xH/4Wh/wjn9tfZf8AiW/8I/8AavJ8m1ig/wBb9qTdnyt33RjdjnGSAfmt+wV8UfDHwX/ax8DeMvGWp/2P4b0z7d9rvfs8s/l+ZYXESfJErOcvIg4U4zk8Amv3T+Bn7Ufwx/aSOtj4c+Jv+EiOi+R9v/0C6tfJ87zPL/18Sbs+VJ93ONvOMjP4BfsufAz/AIaT+Ovhn4cf23/wjn9tfav+Jn9k+1eT5NrLP/qt6bs+Vt+8Mbs84wfv/P8Aw5f6f8Xi/wCFk/8AcD/s7+z/APwJ83zPt/8AsbfK/i3fKAfqpRXlX7Lnxz/4aT+BXhn4j/2J/wAI7/bX2r/iW/a/tXk+TdSwf63Ym7PlbvujG7HOMn4A/wCH5v8A1RP/AMuv/wC4qAP1TJwCT0FeA/FH9vT4FfBfx1qfg3xl44OjeJNN8r7VZf2Rfz+X5kSSp88UDIcpIh4Y4zg4IIr4qP8AwXN45+Cf/l1//cVfAH7Ufxz/AOGk/jr4m+I40X/hHf7a+y/8Sz7X9q8nybWKD/W7E3Z8rd90Y3Y5xkgGZ8CfgT4u/aK+Itn4L8F2Ud5q1wjTSSTv5cFrCuN80r4O1BkDgEkkAAkgH9HdB/4Ir+GXslTUPizqF5qEfyXB03RlESSfxKMyMeOnJzxyBnAP+CK+h28ngb4s6gi+Tf3N7p9iblOJUj2yHCt25cnjuB6DH6Z6xqun+EPD17qN5Illpem2z3E0gGFihjUsx+gUE/hQNJt2R5n8B/h34d/ZN+A+h+Cp/ETzaNoP2jOr6rGLYN51zLN82flXBlKjnnArsdN+MHg7W4BPpmvW2qQHpLYBrhD/AMCQEV8N3v7ct5q/j6XXLDwAvioSy+VpdndF3uYoSQESGMBlidsBnbazEnBO1VC/Tni341+PNHs47i2+HdxZ2rgYe7YzMDjoVj+7+JrWjTliJckLX83Y5sbXjl9NVa6dm2tE3tvt6nl/7b37P/w4/awh8IzeJ/iFceCYfDX2zy5TZ4SX7R5GdxlCgY8gfXca9a/ZH8KeDfhN8DNA8C+D/F8XjbS9Da4UanbbZCxmuJZyGEZYKQZSOvQVS8I/Fv4oeIojdDwFDc2SkhiJTaM2P7vmtz+Ar5v+I/7ZWr6d8Rb+3l+HNr4d1XQ75khuJGMd+yq3G59mGhlUYZcEEElWDBWV1qUqEuWdr+TuRgsTHH03Uop2Vt01vp13OOuv+CKfgyCBn/4WlrsIXkyS6MhUD3+Yfzr5t+Kf/BJL43+FPE8lv4JsbL4jeHJEEtrrNpfWtiWUjpJDPMpVv91nUjB3ckD9pPhn8RdI+LHgfSvFWhTNNpmoxl08xdrowYq6OOzKyspHqprXtrddPub1YyRC5WYR/wAKM2Q230BK5x6knvWCd9Udkk4txe6P5lvil8LfE/wW8d6n4N8ZaZ/Y3iTTfK+1WXnxT+X5kSSp88TMhykiHhjjODyCK+/f2C/2DPjr8Ff2sfAvjLxn4G/sbw3pv277Ve/2vYT+X5lhcRJ8kU7OcvIg4U4zk8AmvAP+Copz+3V8TP8AuGf+my0r9qf2o/jl/wAM2fArxN8R/wCxP+Ei/sX7L/xLftf2XzvOuooP9bsfbjzd33TnbjjOQxB8cv2pPhh+zaNE/wCFjeJv+Ed/trz/ALB/oF1ded5Pl+b/AKiJ9uPNj+9jO7jODj8rP2pP2XPid+2h8dvE3xk+Dfhn/hMfhv4l+y/2VrX2+1sftP2e1itZv3N1LFMm2a3lT50GduRlSCfVM/8AD5//AKo7/wAK1/7jn9o/2h/4DeV5f2D/AG93m/w7fmP+G5/+HbH/ABjj/wAIT/wsX/hC/wDmZf7V/sv7Z9r/ANP/AOPbyZvL2fa/L/1jbtm7jdtAB+VlAGTXqv7LnwL/AOGk/jr4Z+HH9t/8I7/bX2r/AImf2T7V5Pk2ss/+q3puz5W37wxuzzjB+/h/wQzB6fGz/wAtT/7toA6z9gr9vP4FfBb9k7wL4N8Z+ODo3iTTft32qy/si/n8vzL+4lT54oGQ5SRDwxxnB5BFH7ev7efwK+NP7J3jrwb4M8cHWfEmpfYfstl/ZF/B5nl39vK/zywKgwkbnlhnGByQK5T/AIcZf9Vs/wDLU/8Au2vgD9lz4Gf8NJ/HXwz8ODrZ8O/219q/4mX2T7V5Pk2ss/8Aqt6bs+Vt+8Mbs84wQD7/AP8AghmMf8Ls/wC4J/7f18q/8FR/+T7Pib/3DP8A012lfql+wz+w0P2Lv+E2/wCK2/4TH/hJfsX/ADCfsP2f7P8AaP8ApvLv3ef7Y2988eV/tRf8Epf+GlPjr4m+I/8AwtH/AIR3+2vsv/Et/wCEf+1eT5NrFB/rftSbs+Vu+6Mbsc4yQD9AKKKKACiiigApCMgg9DS0h4FAHgPxR/YL+BXxo8dan4y8ZeBzrPiTUvK+1Xv9r38HmeXEkSfJFOqDCRoOFGcZOSSa/nWr9KP29P2DPjr8av2sfHXjLwZ4G/tnw3qX2H7Le/2vYQeZ5dhbxP8AJLOrjDxuOVGcZHBBr7W/4Kj/APJifxN/7hn/AKdLSgD5U/4IY/8ANbP+4J/7f1+qtfyr0UAftT+1J+y58Mf2L/gT4m+Mnwb8M/8ACHfEjw19l/srWv7Qur77N9ouorWb9zdSywvuhuJU+dDjdkYYAjyr9hc/8PJj42/4aN/4uIfBf2H+wf8AmF/Y/tf2j7T/AMePk+Zv+yW/+s3bdny43Nn4q/YK+KPhj4L/ALWPgbxl4y1P+x/Demfbvtd79nln8vzLC4iT5IlZzl5EHCnGcngE1+6fwN/aj+GP7SX9tj4c+Jv+EiOi+R9v/wBAurXyfO8zy/8AXxJuz5Un3c4284yMgHV/C34WeGPgt4E0zwb4N0z+x/Dem+b9lsvtEs/l+ZK8r/PKzOcvI55Y4zgcACvAP+HXX7Mf/RMz/wCD/VP/AJJr4p/b0/YM+Ovxq/ax8deMvBngb+2fDepfYfst7/a9hB5nl2FvE/ySzq4w8bjlRnGRwQa5b9lv9lz4nfsX/Hbwz8ZPjJ4Z/wCEO+G/hr7V/autfb7W++zfaLWW1h/c2sssz7priJPkQ43ZOFBIAD/gq3+y78Mf2a/+FXf8K48M/wDCO/21/an2/wD0+6uvO8n7J5X+vlfbjzZPu4zu5zgY+AK/pS+Bv7Unww/aSGt/8K58Tf8ACRf2L5H2/wD0C6tfJ87zPL/18Sbs+VJ93ONvOMjPLfFH9vT4FfBfx1qfg3xl44OjeJNN8r7VZf2Rfz+X5kSSp88UDIcpIh4Y4zg4IIoA6j4N/s3/AA6/Zy0zVLD4d+Hf+EetNSuYJ7uP7bc3XmOpCqczSORgE8AgV2/jjQR4v8GeINBWcQNqVhPZeaDzGZI2Td+Gc1+c/wDwRO/5Jj8Tf+w3Yf8AoBr9Fr3GkeIIrn7tvfgQy+gkH3G/EcflXLXrexSk1pdJ+V+v3gfAn7K/w+1H4efHjxJp/i7SxY3Wm2htbWZtsn75ijGWL+8FXaQeDyffH2x4z+IOk+E/AOoXlw1zr/2OyeaS3sLdp7icIuTtjHJY44XqTgV8u/FyxutU+JfiG985Ypzdsg2grgJ8i8564UVznhzUNU8IeIbLVEje7EEgaSES8TJn5kJ5OCOOlaYXMclxS5KGKiqq+zJ8vvdtbdTy8wee4epzYjBP2OlpR960e+l9XvqfSPwD+NGifEjwz/wln9neJvCq3GbQaL4jtJIGQx4+dEyVKsMHcO5Iz2r5y/bl8MHxt4+8G3vhbTmv9Yvnewu4YRiV1Yxrbsc8YDbxntuJ9SNT4ieO7/4nX9pcQ6aNKtIY9ogjl3IXycvnA5wQP+A1kaBY3Wl63p+pNOHmtLiOdFYlgSrAgE+nFVisflGBptZhioxq/wAsXzNP5XFgqudYvEL+zMHKVHbmkuVOL33t6qx9gfs//Dy4+Enwg8PeGdQnjku7OJ5LhkPyLJJI0rKD3ALkZ74z3rmf2xPHuu/DD9nD4j+KvDN//ZuvaXpST2d35McvlP5uM7JFZTwTwQa9K1N/7bvbTTE5iwJ7ojoF/hX8T+gqp8SPHmhfC/wjrvinxNff2ZoOl2sc93d+TJL5SbyM7I1ZjyR0BrCjX9tOSivdWl/Pr9x6zvfU/mx+KPxR8T/Gjx1qXjHxjqX9seJNS8r7Ve/Z4oPM8uJIk+SJVQYSNBwozjJ5JNf0p/FL4WeGPjT4E1Pwb4y0z+2PDepeV9qsvtEsHmeXKkqfPEyuMPGh4YZxg8Eivx//AGof2W/if+2h8dPEvxk+Dfhn/hMPhv4k+y/2VrX9oWtj9o+z2sVrN+5upYpk2zW8qfOgztyMggn9gPil8U/DHwW8Can4y8Zan/Y/hvTfK+1Xv2eWfy/MlSJPkiVnOXkQcKcZyeATXWI/NX9un/jWz/whX/DOX/Fu/wDhNPt39vZ/4mn2z7J9n+zf8f3neXs+13H+r27t/wA2dq4/Nf4pfFLxP8afHep+MvGWp/2z4k1LyvtV75EUHmeXEkSfJEqoMJGg4UZxk8kmvtT/AIKt/tRfDH9pM/C//hXPib/hIv7F/tT7fmwurXyfO+yeX/r4k3Z8qT7ucbecZGfgCgD9qf2pP2XPhj+xf8CfE3xk+Dfhn/hDviR4a+y/2VrX9oXV99m+0XUVrN+5upZYX3Q3EqfOhxuyMMAQn/BKX9qP4nftKH4o/wDCx/E3/CRf2L/Zf2D/AEC1tfJ877X5v+oiTdnyo/vZxt4xk5/Nb4o/sF/HX4LeBdT8ZeM/A40bw3pvlfar3+17Cfy/MlSJPkinZzl5EHCnGcnABNeAEYOD1oA/qorwD4XfsF/Ar4L+OtM8ZeDfA50bxJpvm/Zb3+17+fy/MieJ/klnZDlJHHKnGcjBANcp/wAEuP8AkxP4Zf8AcT/9Ol3R/wAFR/8AkxP4m/8AcM/9OlpQB5R/wVa/ah+Jv7NY+Fw+HHib/hHRrX9qC/H2C1uvO8n7J5X+vifbjzZPu4zu5zgY+gf2Cvij4n+NH7J3gbxl4y1P+2fEmp/bvtd79nig8zy7+4iT5IlVBhI0HCjOMnkk18Vf8EMv+a2f9wT/ANv6+Vv+Co//ACfZ8Tf+4Z/6a7SgD9/qKKKACiiigApDS0h5FABxXyt/wVH/AOTE/ib/ANwz/wBOlpXxT+3p+3n8dfgr+1j468G+DPHP9jeG9N+w/ZbL+yLCfy/MsLeV/nlgZzl5HPLHGcDgAV9rf8FR/wDkxP4m/wDcM/8ATpaUAflX+wx+wyP20f8AhNv+K2/4Q7/hGvsX/MJ+3faftH2j/ptFs2+R753dsc+VftR/Az/hmv46+Jvhx/bf/CRf2L9l/wCJl9k+y+d51rFP/qt77cebt+8c7c8ZwPv7/ghl/wA1s/7gn/t/Xyt/wVH/AOT7Pib/ANwz/wBNdpQB5V+y58DP+Gk/jr4Z+HH9t/8ACOf219q/4mf2T7V5Pk2ss/8Aqt6bs+Vt+8Mbs84wf2n/AGGf2Gv+GLx42/4rb/hMf+El+xf8wr7D9m+z/aP+m8u/d9o9sbe+ePLP2pP2XPhj+xf8CfE3xk+Dfhn/AIQ74keGvsv9la1/aF1ffZvtF1FazfubqWWF90NxKnzocbsjDAEfn+f+Cov7ThGP+Fmcf9gDTP8A5GoA+/8A9qL/AIKtf8M1/HXxN8OP+FXf8JH/AGL9l/4mX/CQfZfO861in/1X2V9uPN2/eOdueM4Hqv8AwVG/5MU+JmOv/Es/9OdpX4W/FL4peJ/jT471Pxl4y1P+2fEmpeV9qvfIig8zy4kiT5IlVBhI0HCjOMnkk19qfst/tR/E79tD47eGfg38ZPE3/CY/DfxL9q/tXRfsFrY/afs9rLdQ/vrWKKZNs1vE/wAjjO3BypIIB6r/AMENM5+Nmf8AqCf+39eqftRf8EpT+0n8dfE3xH/4Wj/wjn9tfZv+JZ/wj/2ryfJtYoP9b9qTdnyt33RjdjnGT9VfAz9lz4Y/s2f20fhz4Z/4R3+2vI+3/wCn3V153k+Z5X+vlfbjzZPu4zu5zgY9WoA+Xf2LP2NB+xv4Y8TaQPGH/CX/ANtX9rded/Zn2Lydny7cedJuznOcivdvih4a1Hxf8PvEGkaPqUui6xd2ciWOowBS9tPtPlyAMCOGx26Zr4+/4JeftIfEX9o7wJ461D4ieIv+Ehu9N1WzgtJPsVta+WjKWYYgjQHJA5OTX3SeAaiUVJWa0A+Ep9b1Hxai6xqWg6toN/LmK8ttXtPs8/2iMmOV2VSyfO6MwKMVIYYOKgPIr6L1TVbv+2r1LbxHpu4zPm0v4Qrx8ng4ZTj0yPzqjdW2pJHJczQeGHVFLNPIrDAHc8H+dfjOM4ZjisZKtSqNczvblT6+TP0zC548NhI06kE1Fb3a/NHzzpy7bOID0q2s0lnG95Hp1zqv2ZTMbO0jLyz7Ru8tAOrNjAHHJFer/DhL/VPB+m3MFp4ddSGG6dW8wYdh83HXj17iuom1LULVPLufEWiaZGOCsEWWH03P/T86rE8LcmPnVrVH8Tb91K+vdtIxwWfqpl9OFGCs4Jbvt5I6b9nzSNftvBM2seJ7nUZdY8QXk2r/AGTUwgm06CU5gsyF4HlR7VIyfm3cmnftD/Cn/heHwi8Z+BP7U/sT+3NPjtf7Q+z+f5H7wtu8vcu77vTcOtd54dYvotkxkeYmFMySDazcDkjAwT9BT7v/AFlyO3lR/wDoTV+w0oqMVyn53L4mfl0P26P+HbQ/4Zz/AOEI/wCFif8ACGc/8JL/AGr/AGX9s+2f6f8A8e3kz+Xs+1+X/rG3bN3G7aPv/wDaj+Bv/DSfwK8TfDj+2/8AhHf7a+y/8TL7J9q8nybqKf8A1W9N2fK2/eGN2ecYPKfE79gv4FfGnxxqXjLxn4HOs+JNSEX2q9/te/g8zy4kiT5Ip1QYSNBwozjJySTXwB+wX+3n8dfjV+1j4F8G+M/HP9s+G9S+3farL+yLCDzPLsLiVPnigVxh40PDDOMHgkVsSeA/tzfsM/8ADF48E/8AFbf8Jj/wkv23/mE/Yfs32f7P/wBNpd+77R7Y2988fKtf0pfHL9lz4Y/tJf2IfiN4Z/4SI6L5/wBg/wBPurXyfO8vzP8AUSpuz5Uf3s428Yyc/hZ+3r8LvDHwX/ax8c+DfBumf2P4b0z7D9ksvtEs/l+ZYW8r/PKzOcvI55Y4zgcACgD6A/ai/wCCrX/DSfwK8TfDn/hV3/COf219l/4mf/CQfavJ8m6in/1X2VN2fK2/eGN2ecYPwDjmv1+/b1/YM+BXwW/ZO8deMvBngc6N4k037D9lvf7Xv5/L8y/t4n+SWdkOUkccqcZyOQDXz/8A8Epf2Xfhj+0ofij/AMLH8M/8JF/Yv9l/YP8AT7q18nzvtfmf6iVN2fKj+9nG3jGTkAX9l3/gq1/wzX8CvDPw4Hwu/wCEj/sX7V/xMv8AhIPsvneddSz/AOq+yvtx5u37xztzxnA9U/4bn/4eUf8AGOP/AAhP/Cuv+E0/5mX+1v7U+x/Y/wDT/wDj28mHzN/2Ty/9Yu3fu527T9Vf8Ouv2Y/+iZn/AMH+qf8AyTX5V/8ABLj/AJPs+GX/AHE//TXd0AfVQ/40vf8AVYf+Flf9wP8As7+z/wDwJ83zPt/+xt8r+Ld8vwB+1H8c/wDhpT46+JviP/Yn/CO/219l/wCJb9r+1eT5NrFB/rdibs+Vu+6Mbsc4yfv/AP4LmHH/AApP/uN/+2FdX+wV+wZ8CvjT+yd4F8ZeM/A51nxJqX277Ve/2vfweZ5d/cRJ8kU6oMJGg4UZxk8kmgD9KaKKKACiiigApD0paQ9KAPwC/wCCo/8AyfZ8Tf8AuGf+mu0r379gv9gz46/BX9rHwL4y8Z+Bv7G8N6b9u+1Xv9r2E/l+ZYXESfJFOznLyIOFOM5PAJrwH/gqNz+3X8TP+4Z/6bLSvqn/AIfm/wDVE/8Ay6//ALioA9V/4Ks/su/E79pT/hV3/CuPDP8AwkX9i/2p9v8A9PtbXyfO+yeX/r5U3Z8qT7ucbecZGV/Zb/aj+GP7F/wJ8M/Bv4yeJv8AhDviR4a+1f2rov8AZ91ffZvtF1LdQ/vrWKWF90NxE/yOcbsHDAgep/sNftyj9tH/AITbPgn/AIQ7/hGvsX/MW+3faPtH2j/pjFs2/Z/fO7tjn8rf+Co3/J9fxMx0/wCJZ/6bLSgD90/il8U/DHwW8Can4y8Zan/Y/hvTfK+1Xv2eWfy/MlSJPkiVnOXkQcKcZyeATXKfA79qT4Y/tI/23/wrnxN/wkP9i+T9vzYXVr5Pm+Z5f+viTdnypPu5xt5xkZ+Af+G6P+Hk/wDxjj/whP8Awrr/AITT/mZf7V/tT7H9k/0//j28mHzN/wBk8v8A1i7d+7nbtP1R+wz+w1/wxh/wm3/Fbf8ACZf8JL9i/wCYT9h+zfZ/tH/TeXfu8/2xt754AOt+KP7enwK+C/jrU/BvjLxwdG8Sab5X2qy/si/n8vzIklT54oGQ5SRDwxxnBwQRXKf8PRf2Y/8Aoph/8EGqf/I1flX/AMFRuP26/iZ/3DP/AE2WleVfsufA3/hpT46+Gfhx/bf/AAjv9tfav+Jl9k+1eT5NrLP/AKrem7PlbfvDG7POMEA/ar/h6L+zGTgfEs5/7AGqf/I1e/fC34p+GPjT4E0zxl4N1P8Atjw3qXm/Zb37PLB5nlyvE/ySqrjDxuOVGcZHBBr8Lf25v2Gf+GLj4J/4rb/hMf8AhJftv/MK+w/Zvs/2f/ptLv3ef7Y2988eq/su/wDBVr/hmz4FeGfhwPhd/wAJH/Yv2r/iZ/8ACQfZfO866ln/ANV9lfbjzdv3jnbnjOAAfXH/AATC/Z1+If7NPgHx5Z/Ejw9/wjdxqGp2d1bKb62uRJGikM2YJHAwT3xX3aeRX57fs3f8FV1/aS+Nnh74dyfCoaJDraXSyXja+LsIsVrLMR5RtUDbhFtwWH3s84xX3DD4jsNLQxvrH7vPyJdwszxj+7kYJA9Tk+pNAHzv+1L4O1LR/FS+J7UP/Z19Gkc7oSRHMo2jcOgBULg+oPtnwufUbq4UrJMxXuBgfyr6b+JH7U/wN8N+LLjRfF/xJ0Ww1SyRUuNMuoZcKHQOu4YPVXU/Qiq/xM8LfBTwx4evvEWv6raeGNLtihuL6ETRxx73CLlcsoyzKOB3r1MFWwUZc2Jw8eZbSsm/mfGZrlWY1W/qWJkoS3g5NL5a2sfNNveT2oIilZAecDp+Veq/ADwhqPjjx3aXdyZDpWmSC4mf7oZ1OUQep3YJHoPcV0Xwjb9nr4jPqD+E/FVl4wbTzH9p+adhDv3bMgbRzsf1+6a9x0678LaRcwS2F9Z2McKbEgt7V0jAxj7orTMMRgqz9pSw8XN/aaV15+pjlGT5jhuWGJxMlTj9mMnZ+Xax6AowK+b/APgoJcRj9j/4vHcMLpEUZxzhjMmB/wCPL+dbnhD9sz4OfEbxFa+HfDfxN0fVNavd4t7WzhlMr7UZ227hjhVY8+lYH7VPwI1n9q74bDwDofjRvBOgXNytxq11JpH22XUthVo4+Zoyih1DnqSUQDaoIbxkfcn89hGK/f7/AIei/sx/9FMP/gg1T/5Gr5U/4cZZ/wCa2f8Alqf/AHbS/wDDjL/qtn/lqf8A3bTA8q/4KtftRfDH9pT/AIVd/wAK48Tf8JF/Yv8Aan2//QLq18nzvsnlf6+JN2fKk+7nG3nGRn7/AP8Aglx/yYn8Mv8AuJ/+nS7r8rP25v2Gf+GL/wDhCf8Aitv+Ex/4SX7b/wAwr7D9m+z/AGf/AKbS7932j2xt7549V/Zd/wCCrX/DNfwK8M/DgfC7/hI/7F+1f8TL/hIPsvneddSz/wCq+yvtx5u37xztzxnAAP0p+F37enwK+NHjrTPBvg3xwdZ8Sal5v2Wy/si/g8zy4nlf55YFQYSNzywzjAySBXxT/wAFzPm/4Uljv/bf/thS/wDDDH/Dtj/jI7/hNv8AhYv/AAhf/Mtf2V/Zf2z7X/oH/Hz503l7Ptfmf6tt2zbxu3D5W/bl/bl/4bR/4Qn/AIon/hDv+Ea+2/8AMW+3faftH2f/AKYxbNvke+d3bHIB9qfsFft5/Ar4LfsneBfBvjPxwdG8Sab9u+1WX9kX8/l+Zf3EqfPFAyHKSIeGOM4PIIr4p/4dc/tO/wDRM/8Ayv6X/wDJNerfsu/8Epf+Gk/gV4Z+I3/C0f8AhHP7a+1f8Sz/AIR/7V5Pk3UsH+t+1Juz5W77oxuxzjJ+qf2Xf+CrX/DSfx18M/Dj/hV3/COf219q/wCJl/wkH2ryfJtZZ/8AVfZU3Z8rb94Y3Z5xggHwAf8Agl1+04Bk/DPA/wCw/pf/AMk14D8Uvhb4n+C3jvU/BvjLTP7G8Sab5X2qy8+Kfy/MiSVPniZkOUkQ8McZweQRX7pftzftzf8ADF//AAhP/FE/8Jj/AMJL9t/5iv2H7P8AZ/s//TCXfu+0e2NvfPH4r/tR/HL/AIaT+Ovib4j/ANif8I7/AG19l/4lv2v7V5Pk2sUH+t2Juz5W77oxuxzjJAP6U6KKKACiiigApCMgg9DS0hOASegoA8B+KP7BfwK+NHjrU/GXjLwOdZ8Sal5X2q9/te/g8zy4kiT5Ip1QYSNBwozjJySTX4q/sFfC7wx8aP2sfA3g3xlpn9seG9T+3fa7L7RLB5nl2FxKnzxMrjDxoeGGcYPBIr9qvij+3p8Cvgv461Pwb4y8cHRvEmm+V9qsv7Iv5/L8yJJU+eKBkOUkQ8McZwcEEV+Kv7BXxR8MfBf9rHwN4y8Zan/Y/hvTPt32u9+zyz+X5lhcRJ8kSs5y8iDhTjOTwCaAP3T+Bv7Lfwx/Zu/tv/hXXhn/AIR3+2vI+35v7q687yvM8v8A18r7cebJ93Gd3OcDHLfFH9gv4FfGjx1qfjLxl4HOs+JNS8r7Ve/2vfweZ5cSRJ8kU6oMJGg4UZxk5JJr4p/boH/DyY+CR+zl/wAXEPgv7d/b3/ML+x/a/s/2b/j+8jzN/wBkuP8AV7tuz5sblz8q/wDDrn9p3/omf/lf0v8A+SaAPAfhb8UvE/wW8d6Z4y8G6n/Y3iTTfN+y3vkRT+X5kTxP8kqshykjjlTjORyAa/X3/glL+1F8Tv2kx8UR8RvE3/CRDRf7L+wf6Ba2vk+d9r8z/URJuz5Uf3s428Yyc/K37Lf7LnxO/Yv+O3hn4yfGTwz/AMId8N/DX2r+1da+32t99m+0WstrD+5tZZZn3TXESfIhxuycKCQf8FWv2ovhj+0p/wAKu/4Vx4m/4SL+xf7U+3/6BdWvk+d9k8r/AF8Sbs+VJ93ONvOMjIB5V/wVH/5Ps+Jv/cM/9NdpR/wS4/5Ps+GX/cT/APTXd1+qn/BLj/kxP4Zf9xP/ANOl3X5AfFH9gv46/BbwLqfjLxn4HGjeG9N8r7Ve/wBr2E/l+ZKkSfJFOznLyIOFOM5OACaAPtX/AILmHH/Ck/8AuN/+2FdX+wV+wZ8CvjT+yd4F8ZeM/A51nxJqX277Ve/2vfweZ5d/cRJ8kU6oMJGg4UZxk8kmuU/4IZjB+NoPb+xP/b+vlX/gqP8A8n2fE3/uGf8AprtKAPv79qX9lv4YfsYfAjxP8Y/g54Z/4Q/4j+G/sv8AZWtHULq++z/aLqK1m/c3UssL7oZ5U+ZDjdkYYAij/wAErf2iPiD+08fiifiXr6+JDo39l/YT9gtbXyvO+1+b/qIk3Z8qP72cbeMZOfDf2C/2DPjr8Ff2sfAvjLxn4G/sbw3pv277Ve/2vYT+X5lhcRJ8kU7OcvIg4U4zk8Amvf8A/gq1+y78Tv2kx8Lj8OPDP/CRDRf7U+3/AOn2tr5PnfZPL/18qbs+VJ93ONvOMjIB718Sf+Cf3wH+LvjTUfFnizwQ2q6/qHl/absavfQB/LjWJPkimVBhEUcKM4yckk16X8SPgd4L+LngvUfCfizRxqvh/UPL+02gnkgL+XIsqfPEyuMOinhhnGDkEivO/wBgr4XeJ/gv+yd4G8G+MtM/sbxJpn277XZfaIp/L8y/uJU+eJmQ5SRDwxxnB5BFfkB/w65/ad/6Jn/5X9L/APkmgD9nfg1+yN8Kf2fjrB8BeF/7C/tfyftu6/ubrzfK3+X/AK6R9uPNk+7jO7nOBj0v/hFtN/59xXwt/wAEpP2XPid+zWfij/wsfwz/AMI7/bX9l/YP9PtbrzvJ+1+b/qJX2482P72M7uM4OP0AoA/n8/4Jg28d3+3L8NYpV3Rt/aeQfbTLo/0r9/IbSK3TEaBRjtX5u/t6/t5/Ar40/sneOvBvgzxwdZ8Sal9h+y2X9kX8HmeXf28r/PLAqDCRueWGcYHJArlP+CGYx/wuz/uCf+39AHJ/t6ft6fHX4K/tY+OvBvgzxz/Y3hvTfsP2Wy/siwn8vzLC3lf55YGc5eRzyxxnA4AFfsBX4A/8FR/+T7Pib/3DP/TXaV+v/wALv29PgV8aPHWmeDfBvjg6z4k1Lzfstl/ZF/B5nlxPK/zywKgwkbnlhnGBkkCgDqfjn+y38Mf2kzoh+I/hn/hIv7F8/wCwf6fdWvk+d5fm/wColTdnyo/vZxt4xk58r/4ddfsx/wDRMz/4P9U/+Sa+VP8Aguac/wDCkyOh/tv/ANsK+q/+CXH/ACYn8Mv+4n/6dLugA/4Kj/8AJifxN/7hn/p0tK+AP+CUv7Lvwx/aU/4Wj/wsfwz/AMJF/Yv9l/YP9PurXyfO+1+b/qJU3Z8qP72cbeMZOfiv4W/C3xP8afHemeDfBumf2z4k1Lzfstl58UHmeXE8r/PKyoMJG55YZxgckCuq+OX7LnxO/ZtGiH4jeGf+EdGtef8AYMX9rded5Pl+Z/qJX2482P72M7uM4OAD6q/ak/aj+J37F/x28TfBv4N+Jv8AhDvhv4a+y/2Vov2C1vvs32i1iupv311FLM+6a4lf53ON2BhQAPiv4W/FLxP8FvHemeMvBup/2N4k03zfst75EU/l+ZE8T/JKrIcpI45U4zkcgGv3T/4Jcf8AJifwy/7if/p0u6P+Co//ACYn8Tf+4Z/6dLSgD5U/YX/42S/8Jt/w0b/xcT/hCvsP9g4/4lf2P7X9o+0/8ePk+Zv+yW/+s3bdny43Nn4r/b1+F3hj4L/tY+OfBvg3TP7H8N6Z9h+yWX2iWfy/MsLeV/nlZnOXkc8scZwOABXK/A39lz4nftJDWz8OfDP/AAkQ0XyPt+b+1tfJ87zPL/18qbs+VJ93ONvOMjPK/FL4W+J/gt471Pwb4y0z+xvEmm+V9qsvPin8vzIklT54mZDlJEPDHGcHkEUAf0+0UUUAFFFFABSHpS0h5FAHwB+1F/wSm/4aT+Ovib4j/wDC0f8AhHP7a+zf8Sz/AIR/7V5Pk2sUH+t+1Juz5W77oxuxzjJ+Vv2ov+CUo/Zr+BXib4j/APC0f+Ej/sX7N/xLP+Ef+y+d511FB/rftT7cebu+6c7ccZyOp/b0/bz+OvwV/ax8deDfBnjn+xvDem/Yfstl/ZFhP5fmWFvK/wA8sDOcvI55Y4zgcACuW/Zb/aj+J37aHx28M/Bv4yeJv+Ex+G/iX7V/aui/YLWx+0/Z7WW6h/fWsUUybZreJ/kcZ24OVJBAPVf+CGfX42Z/6gn/ALf1+qfFeVfA39lv4Yfs2jW/+Fc+Gf8AhHf7a8j7f/p91ded5PmeV/r5X2482T7uM7uc4GPzV/b0/bz+OvwV/ax8deDfBnjn+xvDem/Yfstl/ZFhP5fmWFvK/wA8sDOcvI55Y4zgcACgDrP+G5/+Hk//ABjl/wAIT/wrr/hNP+Zl/tX+1Psf2T/Tv+PbyYfM3/ZPL/1i437ucbSn/DjTPP8AwuzP/cqf/dterftSfsufDH9i/wCBPib4yfBvwz/wh3xI8NfZf7K1r+0Lq++zfaLqK1m/c3UssL7obiVPnQ43ZGGAIT/glN+1F8Tv2lf+Foj4j+Jv+EjGi/2X9g/0C1tfJ877X5v+oiTdnyo/vZxt4xk5APK/+G5/+HbH/GOP/CE/8LF/4Qv/AJmX+1f7L+2fa/8AT/8Aj28mby9n2vy/9Y27Zu43bR9U/wDBUb/kxT4mY6/8Sz/052ldZ8Uf2C/gV8aPHWp+MvGXgc6z4k1LyvtV7/a9/B5nlxJEnyRTqgwkaDhRnGTkkmvzV/Zb/aj+J37aHx28M/Bv4yeJv+Ex+G/iX7V/aui/YLWx+0/Z7WW6h/fWsUUybZreJ/kcZ24OVJBAPK/2Gf25f+GLj42/4on/AITE+JfsX/MV+w/Zvs/2j/pjLv3ef7Y2988eU/tSfHP/AIaT+Ovib4j/ANif8I7/AG19l/4lv2v7V5Pk2sUH+t2Juz5W77oxuxzjJ/an/h11+zGOf+FaHP8A2H9U/wDkmvyA/b1+F3hj4L/tY+OfBvg3TP7H8N6Z9h+yWX2iWfy/MsLeV/nlZnOXkc8scZwOABQB9q/8PzP+qJ/+XX/9xUh/4Lmcf8kT/wDLr/8AuKvqv/h11+zH/wBEzP8A4P8AVP8A5Jr4A/4Ktfsu/DH9mv8A4Vd/wrjwz/wjv9tf2p9v/wBPurrzvJ+yeV/r5X2482T7uM7uc4GAD9U/2W/jn/w0n8CfDPxH/sT/AIR3+2vtX/Et+1/avJ8m6lg/1uxN2fK3fdGN2OcZPwD/AMPzf+qJ/wDl1/8A3FX1V/wS4/5MT+GX/cT/APTpd0f8Ouv2Y/8AomZ/8H+qf/JNACfsMftzf8NoHxsf+EJ/4Q7/AIRr7F/zFvt32n7R9o/6YRbNv2f3zu7Y5+qs15V8Df2W/hh+zZ/bf/CufDP/AAjv9teR9v8A9PurrzvJ8zyv9fK+3HmyfdxndznAx+av7en7efx1+Cv7WPjrwb4M8c/2N4b037D9lsv7IsJ/L8ywt5X+eWBnOXkc8scZwOABQB8WfsufAz/hpT46+Gfhx/bf/CO/219q/wCJl9k+1eT5NrLP/qt6bs+Vt+8Mbs84wfv/AP5Qvf8AVYv+Fk/9wP8As7+z/wDwJ83zPt/+xt8r+Ld8vyr/AMEuP+T7Phl/3E//AE13dftR8cv2XPhj+0l/Yh+I3hn/AISI6L5/2D/T7q18nzvL8z/USpuz5Uf3s428YycgH4BftSfHP/hpP46+JviP/Yn/AAjv9tfZf+Jb9r+1eT5NrFB/rdibs+Vu+6Mbsc4yfv8A/wCGGP8Ah2x/xkd/wm3/AAsX/hC/+Za/sr+y/tn2v/QP+PnzpvL2fa/M/wBW27Zt43bh8Vft6/C7wx8F/wBrHxz4N8G6Z/Y/hvTPsP2Sy+0Sz+X5lhbyv88rM5y8jnljjOBwAK/f74pfCzwx8afAmp+DfGWmf2x4b1LyvtVl9olg8zy5UlT54mVxh40PDDOMHgkUAfmqR/w+gH/RHf8AhWv/AHHP7R/tD/wG8ry/sH+3u83+Hb833/8AsufA3/hmz4FeGfhx/bf/AAkX9i/av+Jl9k+y+d511LP/AKre+3Hm7fvHO3PGcA+B37Lfwx/Zt/ts/Dnwz/wjp1ryPt+b+6uvO8nzPL/18r7cebJ93Gd3OcDH5q/t6ft5/HX4K/tY+OvBvgzxz/Y3hvTfsP2Wy/siwn8vzLC3lf55YGc5eRzyxxnA4AFAHV/8MMf8O2P+Mjv+E2/4WL/whf8AzLX9lf2X9s+1/wCgf8fPnTeXs+1+Z/q23bNvG7cDH/D6D/qjv/Ctv+45/aP9of8AgN5Xl/YP9vd5v8O3n4r+KP7enx1+NPgXU/BvjPxwNZ8N6l5X2qy/siwg8zy5UlT54oFcYeNDwwzjByCRXK/A39qX4n/s2/23/wAK58Tf8I7/AG15H2//AEC1uvO8nzPL/wBfE+3HmyfdxndznAwAfv7+y58Df+GbPgV4Z+HH9t/8JF/Yv2r/AImX2T7L53nXUs/+q3vtx5u37xztzxnA+Af+G5/+Hk//ABjj/wAIT/wrr/hNP+Zl/tX+1Psf2T/T/wDj28mHzN/2Ty/9Yu3fu527T8qf8PRv2nf+imf+UDS//kav2A+F37BfwK+C/jrTPGXg3wOdG8Sab5v2W9/te/n8vzInif5JZ2Q5SRxypxnIwQDQB8U/8oXx/wBFi/4WT/3A/wCzv7P/APAnzfM+3/7G3yv4t3HwD+1H8cv+Gk/jr4m+I/8AYn/CO/219l/4lv2v7V5Pk2sUH+t2Juz5W77oxuxzjJ/f345fstfDD9pL+xP+FjeGf+Ei/sXz/sH+n3Vr5PneX5n+olTdnyo/vZxt4xk58r/4ddfsx/8ARMz/AOD/AFT/AOSaAPqqiiigAooooAKQnAJPQUtIelAHgPxR/b0+BXwX8dan4N8ZeODo3iTTfK+1WX9kX8/l+ZEkqfPFAyHKSIeGOM4OCCK5T/h6L+zH/wBFMP8A4INU/wDkavyr/wCCo3H7dfxM/wC4Z/6bLSvqr/hxl/1Wz/y1P/u2gD6q/wCHov7Mf/RTD/4INU/+RqP+Hov7Mf8A0Uw/+CDVP/kavlX/AIcZ/wDVbf8Ay1P/ALto/wCHGX/VbP8Ay1P/ALtoA+qv+Hov7Mf/AEUw/wDgg1T/AORq9U+Bv7Unwx/aT/tsfDjxN/wkX9i+R9v/ANAurXyfO8zyv9fEm7PlSfdzjbzjIz+Vv7UX/BKX/hmv4FeJviOfij/wkf8AYv2X/iW/8I/9l87zrqKD/W/an2483d905244zkep/wDBDM/8ls/7gn/t/QB8rf8ABUf/AJPs+Jv/AHDP/TXaV+v/AMLv29PgV8aPHWmeDfBvjg6z4k1Lzfstl/ZF/B5nlxPK/wA8sCoMJG55YZxgZJAr8gP+Co3P7dfxM/7hn/pstK+qv+GGP+HbH/GRv/Cbf8LF/wCEL/5lr+yv7L+2fa/9A/4+fPm8vZ9r8z/Vtu2beN24AH398cv2pPhh+zaNE/4WN4m/4R3+2vP+wf6BdXXneT5fmf6iJ9uPNj+9jO7jODj8rP2pP2XPid+2h8dvE3xk+Dfhn/hMfhv4l+y/2VrX2+1sftP2e1itZv3N1LFMm2a3lT50GduRlSCfVP8AlM//ANUd/wCFbf8Acc/tH+0P/AbyvL+wf7e7zf4dvJ/w3P8A8O2P+Mcf+EJ/4WL/AMIX/wAzL/av9l/bPtf+n/8AHt5M3l7Ptfl/6xt2zdxu2gA+1f29fhd4n+NH7J3jnwb4N0z+2fEmp/Yfsll9oig8zy7+3lf55WVBhI3PLDOMDkgV+QH/AA66/acPP/Cs+P8AsP6X/wDJNfv8aQ4x2oA+Av2W/wBqP4Y/sX/Anwz8G/jJ4m/4Q74keGvtX9q6L/Z91ffZvtF1LdQ/vrWKWF90NxE/yOcbsHDAgfmr+wV8UfDHwX/ax8DeMvGWp/2P4b0z7d9rvfs8s/l+ZYXESfJErOcvIg4U4zk8Amv0p/ai/wCCU3/DSfx18TfEf/haP/COf219m/4ln/CP/avJ8m1ig/1v2pN2fK3fdGN2OcZPyt+1F/wSl/4Zr+BXib4j/wDC0f8AhI/7F+zf8Sz/AIR/7L53nXUUH+t+1Ptx5u77pztxxnIAPVP26B/w8mPgkfs5f8XEPgv7d/b3/ML+x/a/s/2b/j+8jzN/2S4/1e7bs+bG5c/Kv/Drn9p3/omf/lf0v/5Jr6r/AOCGXJ+Nn/cE/wDb+v1TxQB8A/tSftR/DH9tD4E+Jvg38G/E3/CY/EjxL9l/srRf7PurH7T9nuorqb99dRRQptht5X+dxnbgZYgH8q/jl+y18T/2bf7E/wCFjeGf+Ed/trz/ALB/p9rded5Pl+Z/qJX2482P72M7uM4OP1T/AGXf+CU3/DNnx18M/Ef/AIWj/wAJH/Yv2n/iWf8ACP8A2XzvOtZYP9b9qfbjzd33TnbjjOR5V/wXM4/4Unjj/kN/+2FAHxX8Lv2C/jr8afAumeMvBngcaz4b1Lzfst7/AGvYQeZ5crxP8ks6uMPG45UZxkZBBrq/+CXH/J9nwy/7if8A6a7uvVf2Xf8Agq0P2bPgV4Z+HH/Crv8AhI/7F+1f8TP/AISD7L53nXUs/wDqvsr7cebt+8c7c8ZwPVf+GGP+Ha//ABkd/wAJt/wsX/hC/wDmWv7J/sv7Z9s/0D/j586by9n2vzP9W27Zt43bgAff3xy/aj+GP7Nv9iD4jeJv+EdOtef9g/0C6uvO8ny/M/1ET7cebH97Gd3GcHH4Wft6/FHwx8aP2sfHPjLwbqf9seG9T+w/ZL37PLB5nl2FvE/ySqrjDxuOVGcZHBBrq/25v25v+G0P+EJ/4or/AIQ7/hGvtv8AzFvt32n7R9n/AOmMWzb9n987u2OflWgD+n34pfFPwx8FvAmp+MvGWp/2P4b03yvtV79nln8vzJUiT5IlZzl5EHCnGcngE1ynwN/aj+GP7SR1sfDnxN/wkR0Xyft+bC6tfJ87zPL/ANfEm7PlSfdzjbzjIyftR/A3/hpP4FeJvhx/bf8Awjv9tfZf+Jl9k+1eT5N1FP8A6rem7PlbfvDG7POMHyr9hn9hn/hi/wD4Tb/itv8AhMf+El+xf8wr7D9m+z/aP+m8u/d9o9sbe+eAD8rP+Co//J9nxN/7hn/prtK5T9gr4o+GPgv+1j4G8ZeMtT/sfw3pn277Xe/Z5Z/L8ywuIk+SJWc5eRBwpxnJ4BNdV/wVG/5Pr+Jv/cM/9NlpXlf7LnwM/wCGkvjr4Z+HP9t/8I7/AG19q/4mf2T7V5Pk2ss/+q3puz5W37wxuzzjBAPv79uj/jZL/wAIT/wzl/xcT/hCvt39vZ/4lf2P7X9n+zf8f3k+Zv8Aslx/q923Z82Ny5/Nf4pfC3xP8FvHep+DfGWmf2N4k03yvtVl58U/l+ZEkqfPEzIcpIh4Y4zg8giv0oOP+CL/AP1WL/hZX/cD/s7+z/8AwJ83zPt/+xt8r+Ld8q/8MMf8PJ/+Mjv+E2/4V1/wmn/Mtf2V/an2P7J/oH/Hz50Pmb/snmf6tdu/bzt3EA/VSiiigAooooAKQ9KWkPSgD8Av+Co//J9nxN/7hn/prtK/X79vX4o+J/gv+yd458ZeDdT/ALG8SaZ9h+yXv2eKfy/Mv7eJ/klVkOUkccqcZyOQDX5A/wDBUf8A5Ps+Jv8A3DP/AE12lfqp/wAFR/8AkxP4m/8AcM/9OlpQB+VX/D0X9pwcD4mcf9gDS/8A5Go/4ejftO/9FM/8oGl//I1fK1FAH7/f8FR/+TE/ib/3DP8A06WlfKn/AAQyGf8AhdgPQ/2J/wC39fVf/BUf/kxP4m/9wz/06WlfKn/BDI4/4XYT0H9if+39AH2t8Uf2C/gV8aPHWp+MvGXgc6z4k1LyvtV7/a9/B5nlxJEnyRTqgwkaDhRnGTkkmvxV+KP7enx1+NPgXU/BvjPxwNZ8N6l5X2qy/siwg8zy5UlT54oFcYeNDwwzjByCRX7VfFH9vT4FfBfx1qfg3xl44OjeJNN8r7VZf2Rfz+X5kSSp88UDIcpIh4Y4zg4IIr8Afhb8LfE/xp8d6Z4N8G6Z/bPiTUvN+y2XnxQeZ5cTyv8APKyoMJG55YZxgckCgDqvgd+1J8T/ANm7+2/+Fc+Jv+Ee/tryft+bC1uvO8nzPL/18T7cebJ93Gd3OcDHK/FL4peJ/jT471Pxl4y1P+2fEmpeV9qvfIig8zy4kiT5IlVBhI0HCjOMnkk11Xxy/Zb+J37No0Q/Ebwz/wAI6Na8/wCwf6fa3XneT5fmf6iV9uPNj+9jO7jODj9Kv2Cv28/gV8Fv2TvAvg3xn44OjeJNN+3farL+yL+fy/Mv7iVPnigZDlJEPDHGcHkEUAfVP7evxR8T/Bf9k7xz4y8G6n/Y3iTTPsP2S9+zxT+X5l/bxP8AJKrIcpI45U4zkcgGvn7/AIJS/tRfE79pMfFEfEfxN/wkQ0X+y/sH+gWtr5Pnfa/M/wBREm7PlR/ezjbxjJz4B+wX+wZ8dfgr+1j4F8ZeM/A39jeG9N+3far3+17Cfy/MsLiJPkinZzl5EHCnGcngE11f/Bc3n/hSf/cb/wDbCgDlP29P28/jr8Ff2sfHXg3wZ45/sbw3pv2H7LZf2RYT+X5lhbyv88sDOcvI55Y4zgcACvlb4o/t6fHX40+BdT8G+M/HA1nw3qXlfarL+yLCDzPLlSVPnigVxh40PDDOMHIJFfr/AP8ABLj/AJMT+GX/AHE//Tpd15V+1J+1H8Mf20PgT4m+Dfwb8Tf8Jj8SPEv2X+ytF/s+6sftP2e6iupv311FFCm2G3lf53GduBliAQDyr/ghkcn42E/9QT/2/r9VK/ms+Of7LfxO/ZsGin4j+Gf+Ed/trz/sH+n2t153k+X5v+olfbjzY/vYzu4zg48qoA/Sj9gv9vP46/Gr9rHwL4N8Z+Of7Z8N6l9u+1WX9kWEHmeXYXEqfPFArjDxoeGGcYPBIrq/+C5vA+Cf/cb/APbCuU/YL/YM+OvwV/ax8C+MvGfgb+xvDem/bvtV7/a9hP5fmWFxEnyRTs5y8iDhTjOTwCa/Sr45ftSfDD9mz+xP+FjeJv8AhHf7a8/7B/oF1ded5Pl+b/qIn2482P72M7uM4OAD+a2v3+/4Kj/8mJ/E3/uGf+nS0o/4ei/sx/8ARTD/AOCDVP8A5Grq/hd+3p8CvjR460zwb4N8cHWfEmpeb9lsv7Iv4PM8uJ5X+eWBUGEjc8sM4wMkgUAfzrUV/Sl8cv2pPhh+zaNE/wCFjeJv+Ed/trz/ALB/oF1ded5Pl+Z/qIn2482P72M7uM4OPys/ak/Zc+J37aHx28TfGT4N+Gf+Ex+G/iX7L/ZWtfb7Wx+0/Z7WK1m/c3UsUybZreVPnQZ25GVIJAPKf+Ho37Tv/RTP/KBpf/yNQf8AgqL+04Rg/EzI/wCwBpf/AMjV+wHwu/b0+BXxo8daZ4N8G+ODrPiTUvN+y2X9kX8HmeXE8r/PLAqDCRueWGcYGSQK+Kf+C5pyPgmR0/4nf/thQB+a/wAUvil4n+NPjvU/GXjLU/7Z8Sal5X2q98iKDzPLiSJPkiVUGEjQcKM4yeSTX7/fC79gv4FfBfx1pnjLwb4HOjeJNN837Le/2vfz+X5kTxP8ks7IcpI45U4zkYIBr+daur+Fvwt8T/Gnx3png3wbpn9s+JNS837LZefFB5nlxPK/zysqDCRueWGcYHJAoA/Sj/guaMf8KTA6D+2//bCvqv8A4Jcf8mJ/DL/uJ/8Ap0u6+VP2F/8AjW1/wm3/AA0b/wAW7/4TX7D/AGDj/iafbPsn2j7T/wAePneXs+12/wDrNu7f8udrY+K/29fij4Y+NH7WPjnxl4N1P+2PDep/Yfsl79nlg8zy7C3if5JVVxh43HKjOMjgg0Af0U0UUUAFFFFABSHpS0h6UAfgF/wVH/5Ps+Jv/cM/9NdpX7UftR/A3/hpP4FeJvhx/bf/AAjv9tfZf+Jl9k+1eT5N1FP/AKrem7PlbfvDG7POMH8V/wDgqP8A8n2fE3/uGf8AprtKT/h6N+07/wBFM/8AKBpf/wAjUAfVX/DjL/qtn/lqf/dtH/DjL/qtn/lqf/dtfKv/AA9G/ad/6KZ/5QNL/wDkaj/h6N+07/0Uz/ygaX/8jUAfqr/wVG5/YU+Jn/cM/wDTnaV8qf8ABDL/AJrZ/wBwT/2/r4r+KP7enx1+NPgXU/BvjPxwNZ8N6l5X2qy/siwg8zy5UlT54oFcYeNDwwzjByCRX2r/AMEMjk/Gwn/qCf8At/QB6p+1F/wSlP7Sfx18TfEf/haP/COf219m/wCJZ/wj/wBq8nybWKD/AFv2pN2fK3fdGN2OcZPlf/DDH/Dtj/jI7/hNv+Fi/wDCF/8AMtf2V/Zf2z7X/oH/AB8+dN5ez7X5n+rbds28btw/VSvlX/gqP/yYn8Tf+4Z/6dLSgD5UH/G6Dp/xZ3/hW3/cc/tH+0P/AAG8ry/sH+3u83+Hb83wD+1H8DP+Ga/jr4m+HH9t/wDCRf2L9l/4mX2T7L53nWsU/wDqt77cebt+8c7c8ZwPv7/ghl/zWz/uCf8At/Xyt/wVH/5Ps+Jv/cM/9NdpQB9/fsu/8FWf+Gk/jr4Z+HH/AAq7/hHP7a+1f8TP/hIPtXk+Tayz/wCq+ypuz5W37wxuzzjB8q/4Lmc/8KT/AO43/wC2Ffa3wu/YL+BXwX8daZ4y8G+Bzo3iTTfN+y3v9r38/l+ZE8T/ACSzshykjjlTjORggGup+OX7LXww/aS/sT/hY3hn/hIv7F8/7B/p91a+T53l+Z/qJU3Z8qP72cbeMZOQD8rf2Xf+CrX/AAzX8CvDPw4Hwu/4SP8AsX7V/wATL/hIPsvneddSz/6r7K+3Hm7fvHO3PGcD5U/Zc+Of/DNnx18M/Ef+xD4i/sX7V/xLPtf2XzvOtZYP9bsfbjzd33TnbjjOR+1P/Drr9mP/AKJmf/B/qn/yTR/w66/Zj/6Jmf8Awf6p/wDJNAHypj/h9AP+iO/8K2/7jn9o/wBof+A3leX9g/293m/w7fmP+HGX/VbP/LU/+7a+/wD4G/st/DD9mz+2/wDhXPhn/hHf7a8j7f8A6fdXXneT5nlf6+V9uPNk+7jO7nOBj81f29P28/jr8Ff2sfHXg3wZ45/sbw3pv2H7LZf2RYT+X5lhbyv88sDOcvI55Y4zgcACgD9f+K+Vf25v2GP+G0f+EJx42/4Q7/hG/tv/ADCft32n7R9n/wCm8Wzb9n987u2Ofir9gv8Abz+Ovxq/ax8C+DfGfjn+2fDepfbvtVl/ZFhB5nl2FxKnzxQK4w8aHhhnGDwSK/X8cCgD8rP+HGX/AFWz/wAtT/7to/4YY/4dsf8AGR3/AAm3/Cxf+EL/AOZa/sr+y/tn2v8A0D/j586by9n2vzP9W27Zt43bh+qlcp8UvhZ4Y+NPgTU/BvjLTP7Y8N6l5X2qy+0SweZ5cqSp88TK4w8aHhhnGDwSKAPzV/5TP/8AVHf+Fa/9xz+0f7Q/8BvK8v7B/t7vN/h2/Mf8Nz/8O2P+Mcf+EJ/4WL/whf8AzMv9q/2X9s+1/wCn/wDHt5M3l7Ptfl/6xt2zdxu2g/bp/wCNbP8AwhX/AAzl/wAW7/4TT7d/b2f+Jp9s+yfZ/s3/AB/ed5ez7Xcf6vbu3/NnauPzX+KXxS8T/Gnx3qfjLxlqf9s+JNS8r7Ve+RFB5nlxJEnyRKqDCRoOFGcZPJJoA/X39l7/AIJS/wDDNfx18M/Ef/haP/CR/wBi/af+JZ/wj/2XzvOtZYP9b9qfbjzd33TnbjjOR5V/wXM5/wCFJ/8Acb/9sK+1f29fij4n+C/7J3jnxl4N1P8AsbxJpn2H7Je/Z4p/L8y/t4n+SVWQ5SRxypxnI5ANfFX7C/8AxsmPjX/ho3/i4n/CF/Yf7Bx/xK/sf2v7R9p/48fI8zf9kt/9Zu27PlxubIB5X+y7/wAEpP8AhpT4FeGfiP8A8LR/4Rz+2vtX/Es/4R/7V5Pk3UsH+t+1Juz5W77oxuxzjJ+qf2Xf+CUv/DNfx18M/Ef/AIWj/wAJH/Yv2r/iW/8ACP8A2XzvOtZYP9b9qfbjzd33TnbjjOR9q/C34WeGPgt4E0zwb4N0z+x/Dem+b9lsvtEs/l+ZK8r/ADysznLyOeWOM4HAAr8qv2C/28/jr8av2sfAvg3xn45/tnw3qX277VZf2RYQeZ5dhcSp88UCuMPGh4YZxg8EigD7V/bm/YY/4bQHgn/itv8AhDv+Ea+2/wDMJ+3faPtH2f8A6bxbNv2f3zu7Y5+Vf+HGX/VbP/LU/wDu2v1Ux8uK/ID9vT9vP46/BX9rHx14N8GeOf7G8N6b9h+y2X9kWE/l+ZYW8r/PLAznLyOeWOM4HAAoA/YCiiigAooooAKKKKACiiigAooooAKKKKACiiigAooooAKKKKACiiigAooooAKKKKACiiigAooooAKKKKACiiigAooooAKKKKACiiigAooooAKKKKACiiigAooooAKKKKACiiigAooooAKKKKACiiigAooooAKKKKACiiigAooooAKKKKACiiigAooooAKKKKAP/9k=;" vertex="1" parent="1">
          <mxGeometry x="202" y="224" width="60" height="60" as="geometry" />
        </mxCell>
      </root>
    </mxGraphModel>
  </diagram>
</mxfile>
